<svg width="24" height="24" viewBox="0 0 24 24" fill="none" xmlns="http://www.w3.org/2000/svg">
<path fill-rule="evenodd" clip-rule="evenodd" d="M8.47059 6C7.10612 6 6 7.10612 6 8.47059V15.5294C6 16.8939 7.10612 18 8.47059 18H15.5294C16.8939 18 18 16.8939 18 15.5294V11.5187C18 11.1289 17.684 10.8128 17.2941 10.8128C16.9043 10.8128 16.5882 11.1289 16.5882 11.5187V15.5294C16.5882 16.1142 16.1142 16.5882 15.5294 16.5882H8.47059C7.88582 16.5882 7.41176 16.1142 7.41176 15.5294V8.47059C7.41176 7.88582 7.88582 7.41176 8.47059 7.41176H11.1176C11.5075 7.41176 11.8235 7.09573 11.8235 6.70588C11.8235 6.31603 11.5075 6 11.1176 6H8.47059ZM12.7372 13.0895L17.7291 8.08985C17.8143 8.00468 17.8821 7.90342 17.9282 7.79212C17.9743 7.68082 17.998 7.56152 17.998 7.44105C17.998 7.32057 17.9743 7.20128 17.9282 7.08998C17.8821 6.97868 17.8145 6.87756 17.7293 6.79239L17.2057 6.26882C17.1205 6.18361 17.0194 6.11598 16.9081 6.06986C16.7968 6.02374 16.6775 6 16.557 6C16.4365 6 16.3172 6.02374 16.2059 6.06986C16.0946 6.11597 15.9935 6.18356 15.9083 6.26877L10.916 11.2649L12.7372 13.0895ZM9.69231 14.3067L11.1149 14.3077C11.3323 14.2653 11.5378 14.1782 11.7187 14.0527L9.93864 12.2684C9.81524 12.4529 9.73109 12.6616 9.69231 12.8815V14.3067Z" fill="#A4AEC1"/>
</svg>
